<svg width="18" height="18" viewBox="0 0 18 18" fill="none" xmlns="http://www.w3.org/2000/svg">
<path fill-rule="evenodd" clip-rule="evenodd" d="M9 18C13.9706 18 18 13.9706 18 9C18 4.02944 13.9706 0 9 0C4.02944 0 0 4.02944 0 9C0 13.9706 4.02944 18 9 18ZM4.46121 13.824C4.37048 13.7864 4.28807 13.7312 4.21868 13.6617C3.93368 13.3767 3.93368 12.8967 4.21868 12.6117L7.88618 8.94417L4.21868 5.27667C4.14925 5.20723 4.09416 5.1248 4.05659 5.03407C4.01901 4.94335 3.99967 4.84612 3.99967 4.74792C3.99967 4.64972 4.01901 4.55248 4.05659 4.46176C4.09416 4.37104 4.14925 4.2886 4.21868 4.21917C4.28812 4.14973 4.37055 4.09465 4.46127 4.05707C4.552 4.01949 4.64923 4.00015 4.74743 4.00015C4.84563 4.00015 4.94287 4.01949 5.03359 4.05707C5.12431 4.09465 5.20675 4.14973 5.27618 4.21917L8.94368 7.88667L12.6112 4.21917C12.6806 4.14973 12.7631 4.09465 12.8538 4.05707C12.9445 4.0195 13.0417 4.00015 13.1399 4.00015C13.2381 4.00015 13.3354 4.0195 13.4261 4.05707C13.5168 4.09465 13.5992 4.14973 13.6687 4.21917C13.7381 4.28861 13.7932 4.37104 13.8308 4.46176C13.8684 4.55248 13.8877 4.64972 13.8877 4.74792C13.8877 4.84612 13.8684 4.94335 13.8308 5.03408C13.7932 5.1248 13.7381 5.20723 13.6687 5.27667L10.0012 8.94417L13.6687 12.6117C13.7381 12.6811 13.7932 12.7635 13.8308 12.8543C13.8684 12.945 13.8877 13.0422 13.8877 13.1404C13.8877 13.2386 13.8684 13.3359 13.8308 13.4266C13.7932 13.5173 13.7381 13.5997 13.6687 13.6692C13.5992 13.7386 13.5168 13.7937 13.4261 13.8313C13.3354 13.8688 13.2381 13.8882 13.1399 13.8882C13.0417 13.8882 12.9445 13.8688 12.8538 13.8313C12.763 13.7937 12.6806 13.7386 12.6112 13.6692L8.94368 10.0017L5.27618 13.6617C5.2068 13.7312 5.12438 13.7864 5.03365 13.824C4.94292 13.8616 4.84566 13.881 4.74743 13.881C4.6492 13.881 4.55194 13.8616 4.46121 13.824Z" fill="#333333"/>
</svg>
