<svg width="24" height="23" viewBox="0 0 24 23" fill="none" xmlns="http://www.w3.org/2000/svg">
<path d="M5.62222 1C4.77889 1 4.08889 1.675 4.08889 2.5V4.5H5.11111V2.5C5.11111 2.225 5.34111 2 5.62222 2H21.4667C21.7478 2 21.9778 2.225 21.9778 2.5V6H13.0383C13.1865 6.305 13.2737 6.64 13.2839 7H21.9778V11H13.2889V12H21.9778V16H13.2839C13.2737 16.36 13.1865 16.695 13.0383 17H21.9778V20.5C21.9778 20.775 21.7478 21 21.4667 21H5.62222C5.34111 21 5.11111 20.775 5.11111 20.5V18.5H4.08889V20.5C4.08889 21.325 4.77889 22 5.62222 22H21.4667C22.31 22 23 21.325 23 20.5V2.5C23 1.675 22.31 1 21.4667 1H5.62222ZM1.63516 5.5C0.737918 5.5 0 6.22188 0 7.09961V15.9004C0 16.7781 0.737918 17.5 1.63516 17.5H10.6315C11.5287 17.5 12.2667 16.7781 12.2667 15.9004V7.09961C12.2667 6.22188 11.5287 5.5 10.6315 5.5H1.63516ZM1.63516 6.5H10.6315C10.9763 6.5 11.2444 6.76234 11.2444 7.09961V15.9004C11.2444 16.2377 10.9763 16.5 10.6315 16.5H1.63516C1.29039 16.5 1.02222 16.2377 1.02222 15.9004V7.09961C1.02222 6.76234 1.29039 6.5 1.63516 6.5ZM2.55855 8.75L3.87526 14.25H5.19796L6.16129 10.0215L7.12461 14.25H8.39041L9.70812 8.75H8.60903L7.73954 12.7451L6.77622 8.75H5.54635L4.55308 12.8691L3.65764 8.75H2.55855Z" fill="black" stroke="#333333" stroke-width="0.4"/>
</svg>
